# xmcd
#
# Track frame offsets: 
#        150
#        19300
#        37782
#        57516
#        75569
#        92845
#        110202
#        132698
#        149010
#        167004
#        186518
#        203813
#        220567
#
# Disc length: 3306 seconds
#
# Revision: 2
# Processed by: cddbd v1.5.2PL0 Copyright (c) Steve Scherf et al.
# Submitted via: ExactAudioCopy v1.0b1
#
DISCID=c30ce80d
DTITLE=Charlie Daniels - Deuces
DYEAR=2007
DGENRE=Country
TTITLE0=What'd I Say (with Travis Tritt)
TTITLE1=Signed, Sealed, Delivered I'm Yours (with Bonnie Bramlett)
TTITLE2=Jackson (with Gretchen Wilson)
TTITLE3=The Night They Drove Old Dixie Down (with Vince Gill)
TTITLE4=Maggie's Farm (with Earl, Gary and Randy Scruggs)
TTITLE5=Daddy's Old Fiddle (with Dolly Parton)
TTITLE6=Like A Rolling Stone (with Darius Rucker)
TTITLE7=Evangeline (with The Del McCoury Band)
TTITLE8=Let It Be Me (with Brenda Lee)
TTITLE9=Long Haired Country Boy (with Brooks and Dunn)
TTITLE10=God Save Us All From Religion (with Marty Stuart)
TTITLE11=Drinkin' My Baby Goodbye (with Montgomery Gentry)
TTITLE12=Jammin' For Stevie (with Brad Paisley)
EXTD=YEAR: 2007
EXTT0=
EXTT1=
EXTT2=
EXTT3=
EXTT4=
EXTT5=
EXTT6=
EXTT7=
EXTT8=
EXTT9=
EXTT10=
EXTT11=
EXTT12=
PLAYORDER=
